<!DOCTYPE svg PUBLIC "-//W3C//DTD SVG 1.1//EN" "http://www.w3.org/Graphics/SVG/1.1/DTD/svg11.dtd">
<!-- Uploaded to: SVG Repo, www.svgrepo.com, Transformed by: SVG Repo Mixer Tools -->
<svg version="1.1" id="Icons" xmlns="http://www.w3.org/2000/svg" xmlns:xlink="http://www.w3.org/1999/xlink" viewBox="0 0 32 32" xml:space="preserve" width="800px" height="800px" fill="#8047fd">
<g id="SVGRepo_bgCarrier" stroke-width="0"/>
<g id="SVGRepo_tracerCarrier" stroke-linecap="round" stroke-linejoin="round"/>
<g id="SVGRepo_iconCarrier"> <style type="text/css"> .st0{fill:none;stroke:#8047fd;stroke-width:2;stroke-linecap:round;stroke-linejoin:round;stroke-miterlimit:10;} </style> <path d="M23.2,17.7c-4.6-0.9-9.8-0.9-14.4,0c-0.5,0.1-0.8,0.5-0.8,1V22c0,3.9,3.1,7,7,7h2c3.9,0,7-3.1,7-7v-3.3 C24,18.2,23.7,17.8,23.2,17.7z M15,23c0,0.6-0.4,1-1,1s-1-0.4-1-1v-2c0-0.6,0.4-1,1-1s1,0.4,1,1V23z M19,23c0,0.6-0.4,1-1,1 s-1-0.4-1-1v-2c0-0.6,0.4-1,1-1s1,0.4,1,1V23z"/> <path d="M16,2C8.8,2,3,8,3,15.3c0,3,1,5,3,6.3v-2.9c0-1.4,1-2.7,2.4-2.9c4.8-1,10.4-1,15.2,0C25,16,26,17.2,26,18.7v2.9 c2-1.2,3-3.2,3-6.3C29,8,23.2,2,16,2z"/> </g>
</svg>